# xmcd
#
# Track frame offsets: 
#        150
#        5414
#        28956
#        48666
#        66905
#        97376
#        119358
#        144796
#        155609
#        180993
#        196267
#        210288
#
# Disc length: 3019 seconds
#
# Revision: 3
# Processed by: cddbd v1.5.2PL0 Copyright (c) Steve Scherf et al.
# Submitted via: ExactAudioCopyFreeDBPlugin 1.0
#
DISCID=a50bc90c
DTITLE=Deadlock - Manifesto
DYEAR=2008
DGENRE=Metal
TTITLE0=The Moribund Choir Vs. The Trumpets Of Armageddon
TTITLE1=Martyr To Science
TTITLE2=Slaughter's Palace
TTITLE3=The Brave - Agony Applause
TTITLE4=Deathrace
TTITLE5=Fire At Will
TTITLE6=Seal Slayer
TTITLE7=Manifesto
TTITLE8=Dying Breed
TTITLE9=Altruism
TTITLE10=Temple Of Love 2k8
TTITLE11=The Brave - Agony Applause (Acoustic Live Version)
EXTD=
EXTT0=
EXTT1=
EXTT2=
EXTT3=
EXTT4=
EXTT5=
EXTT6=
EXTT7=
EXTT8=
EXTT9=
EXTT10=
EXTT11=
PLAYORDER=
